# xmcd CD database file
#
# Track frame offsets:
#	150
#	18587
#	43983
#	57185
#	73980
#	87262
#	117242
#	136088
#	153455
#	169394
#	184069
#	194681
#	208850
#
# Disc length: 3008 seconds
#
# Revision: 0
# Processed by: cddbd v1.5.2PL0 Copyright (c) Steve Scherf et al.
# Submitted via: CDex 1.51
#
DISCID=c60bbe0d
DTITLE=The Brian Setzer Orchestra - The Dirty Boogie
DYEAR=1998
DGENRE=Jazz
TTITLE0=THIS CAT´S ON A HOT TIN ROOF
TTITLE1=THE DIRTY BOOGIE
TTITLE2=THIS OLD HOUSE
TTITLE3=LET´S LIVE IT UP
TTITLE4=SLEEPWALK
TTITLE5=JUMP JIVE AN´ WAIL
TTITLE6=YOU´RE THE BOSS
TTITLE7=ROCK THIS TOWN
TTITLE8=SINCE I DON´T HAVE YOU
TTITLE9=SWITCHBLADE 327
TTITLE10=NOSEY JOE
TTITLE11=HOLLYWOOD NOCTURNE
TTITLE12=AS LONG AS I´M SINGING
EXTD=YEAR: 1998
EXTT0=
EXTT1=
EXTT2=
EXTT3=
EXTT4=
EXTT5=
EXTT6=
EXTT7=
EXTT8=
EXTT9=
EXTT10=
EXTT11=
EXTT12=
PLAYORDER=
